<?xml version="1.0" standalone="no"?>
<!DOCTYPE svg PUBLIC "-//W3C//DTD SVG 20010904//EN"
 "http://www.w3.org/TR/2001/REC-SVG-20010904/DTD/svg10.dtd">
<svg version="1.0" xmlns="http://www.w3.org/2000/svg"
 width="260.000000pt" height="260.000000pt" viewBox="0 0 260.000000 260.000000"
 preserveAspectRatio="xMidYMid meet">
<metadata>
Created by potrace 1.14, written by Peter Selinger 2001-2017
</metadata>
<g transform="translate(0.000000,260.000000) scale(0.100000,-0.100000)"
fill="#000000" stroke="none">
<path d="M1890 2448 c-14 -6 -30 -12 -37 -14 -69 -14 -145 -49 -164 -75 -11
-16 -18 -29 -14 -29 3 0 -1 -12 -9 -27 -26 -49 -146 -326 -142 -330 2 -2 61
17 132 43 l129 46 65 176 c91 245 88 231 40 210z"/>
<path d="M2142 2380 c-65 -162 -82 -204 -82 -207 0 -4 30 2 50 10 8 3 39 13
68 23 60 21 59 15 7 129 -31 66 -33 69 -43 45z"/>
<path d="M1315 2237 l-110 -43 -57 -109 c-31 -61 -56 -112 -55 -115 0 -3 -20
-47 -46 -97 -26 -51 -43 -93 -38 -93 6 0 23 5 38 11 93 38 157 64 163 65 43 8
59 28 104 131 27 59 66 147 87 196 22 48 39 89 39 92 0 9 -13 5 -125 -38z"/>
<path d="M800 2040 l-125 -47 -87 -202 c-47 -110 -83 -201 -80 -201 4 0 32 9
62 20 69 26 73 27 83 28 4 0 19 8 33 16 13 9 24 14 24 11 0 -3 14 1 30 10 17
9 30 20 30 26 0 6 7 25 15 42 32 70 145 341 142 343 -1 1 -58 -20 -127 -46z"/>
<path d="M397 1889 c-9 -6 -25 -12 -35 -14 -44 -8 -218 -79 -229 -92 -9 -12
-6 -28 14 -76 14 -34 33 -80 42 -101 9 -22 26 -60 37 -85 19 -40 23 -43 29
-26 15 39 146 350 157 372 14 28 9 35 -15 22z"/>
<path d="M568 1445 c18 -23 92 -108 162 -185 65 -72 68 -70 -92 -70 -98 1
-148 5 -158 13 -16 13 -159 172 -202 225 -15 17 -29 29 -31 25 -2 -5 -4 -278
-3 -609 l1 -600 25 -37 c32 -46 86 -76 148 -82 27 -2 53 -5 58 -6 5 -1 11 0
14 1 15 6 213 4 217 -3 2 -4 9 -4 15 -1 15 10 219 11 225 1 2 -4 9 -4 15 -1 6
4 266 8 577 8 609 1 597 0 642 52 43 49 43 50 44 541 l2 472 -139 140 -139
141 -141 0 -142 0 44 -46 c25 -26 88 -89 140 -140 l95 -94 -135 0 -136 0 -136
138 -137 138 -126 2 c-69 1 -125 -1 -125 -5 0 -5 59 -66 130 -138 l130 -130
-171 -3 -171 -2 -46 52 c-26 29 -58 65 -72 80 -14 14 -50 54 -80 87 l-55 61
-133 0 -133 0 19 -25z m1583 -314 c14 -1 16 -44 15 -418 -1 -306 -4 -417 -13
-420 -6 -2 -14 1 -18 6 -3 6 -1 11 4 11 8 0 11 85 11 265 l0 265 -920 0 -920
0 0 -265 c0 -199 3 -265 12 -265 9 0 9 -3 1 -11 -30 -30 -33 5 -33 416 0 379
1 414 17 417 14 2 1792 2 1844 -1z m-791 -831 c0 -6 -55 -10 -145 -10 -90 0
-145 4 -145 10 0 6 55 10 145 10 90 0 145 -4 145 -10z"/>
<path d="M314 1111 c-2 -2 -4 -60 -4 -128 l0 -123 458 0 457 0 0 125 c0 69 -2
126 -5 126 -15 4 -902 3 -906 0z"/>
<path d="M1249 1115 c-1 0 -3 -57 -4 -127 l-3 -128 454 0 454 0 0 128 0 127
-450 0 c-247 0 -451 0 -451 0z"/>
</g>
</svg>
